<svg width="328" height="328" viewBox="0 0 328 328" fill="none" xmlns="http://www.w3.org/2000/svg">
<g clip-path="url(#clip0_862_3015)">
<path d="M164 326.292C253.631 326.292 326.292 253.631 326.292 164C326.292 74.3688 253.631 1.70833 164 1.70833C74.3687 1.70833 1.70825 74.3688 1.70825 164C1.70825 253.631 74.3687 326.292 164 326.292Z" stroke="url(#paint0_linear_862_3015)" stroke-width="4"/>
<path d="M111.668 282.041H146.984C151.342 282.041 151.025 279.555 150.674 278.176C139.289 233.477 141.186 214.22 142.943 209.828C151.904 182.242 184.233 190.676 188.45 192.433C191.823 193.839 192.667 192.609 193.018 192.082C193.721 191.379 201.458 162.915 203.385 150.968C204.087 146.61 200.539 146.648 198.641 146.926C173.515 150.616 153.31 146.224 146.457 128.126C140.975 113.648 142.182 107.921 143.47 106.866C148.53 109.115 172.52 109.56 183.882 109.502V121.625C184.303 123.172 185.814 123.909 186.517 124.085H195.829C197.797 123.663 198.289 121.918 198.289 121.098V113.894C198.851 113.754 200.281 114.773 200.925 115.3V120.044C201.487 121.871 202.682 122.562 203.209 122.68H213.224C214.63 122.258 215.332 120.63 215.508 119.868V112.489C219.901 105.636 227.104 88.7691 228.51 84.9037C229.634 81.8113 225.874 79.984 223.766 79.984H216.387C220.041 75.6265 220.369 69.2661 220.076 66.6306C217.968 51.3094 205.61 47.8305 199.695 48.0062C193.838 47.8305 181.562 51.3094 179.313 66.6306C178.514 72.0774 181.422 77.7584 183.179 79.984H114.831C111.865 81.0382 105.463 89.2962 103.586 113.894C95.5037 198.583 102.883 263.241 104.992 272.905C106.678 280.635 110.145 282.217 111.668 282.041Z" fill="url(#paint1_linear_862_3015)"/>
<circle cx="200.046" cy="68.212" r="13.1776" fill="white"/>
<path d="M206.196 68.0363C206.196 66.209 207.718 65.4007 208.48 65.225C207.636 62.1327 205.142 61.711 203.033 61.711C198.289 61.7111 196.884 65.9278 196.884 68.212C196.884 71.3746 198.816 74.7129 203.033 74.7129C206.558 74.7129 208.011 72.3703 208.304 71.3746C207.601 71.0232 206.196 69.8636 206.196 68.0363Z" fill="url(#paint2_linear_862_3015)"/>
</g>
<defs>
<linearGradient id="paint0_linear_862_3015" x1="164" y1="326.292" x2="164" y2="1.70833" gradientUnits="userSpaceOnUse">
<stop stop-color="#82F7FF"/>
<stop offset="1" stop-color="#78B0FF"/>
</linearGradient>
<linearGradient id="paint1_linear_862_3015" x1="164.302" y1="48" x2="164.302" y2="282.054" gradientUnits="userSpaceOnUse">
<stop stop-color="#FFD80B"/>
<stop offset="1" stop-color="#FF8C22"/>
</linearGradient>
<linearGradient id="paint2_linear_862_3015" x1="202.682" y1="61.711" x2="202.682" y2="74.7129" gradientUnits="userSpaceOnUse">
<stop stop-color="#04BBFE"/>
<stop offset="1" stop-color="#3266B7"/>
</linearGradient>
<clipPath id="clip0_862_3015">
<rect width="328" height="328" fill="white"/>
</clipPath>
</defs>
</svg>
